<svg viewBox="0 0 63 64" fill="currentColor" xmlns="http://www.w3.org/2000/svg">
<path d="M44.6118 0C42.1218 0.022 39.6538 0.376 37.2578 1.072L37.0918 1.126C35.5898 0.864 34.0597 0.72 32.5397 0.688C29.3937 0.634 26.6937 1.394 24.5177 2.666C22.3717 1.928 17.9238 0.634 13.2358 0.896C9.97775 1.072 6.41375 2.062 3.76575 4.854C1.14175 7.636 -0.25225 11.948 0.0377505 17.824C0.11975 19.438 0.57975 22.072 1.34975 25.498C2.10975 28.916 3.18375 32.916 4.52775 36.572C5.87175 40.218 7.33775 43.498 9.63175 45.726C10.7758 46.84 12.3598 47.79 14.2238 47.708C15.5278 47.654 16.7038 47.082 17.7257 46.238C18.2237 46.894 18.7578 47.174 19.2358 47.436C19.8518 47.77 20.4337 47.998 21.0497 48.146C22.1537 48.426 24.0397 48.792 26.2477 48.416C26.9977 48.29 27.7898 48.042 28.5818 47.698C28.6138 48.572 28.6458 49.436 28.6758 50.312C28.7898 53.072 28.8658 55.624 29.6858 57.864C29.8218 58.23 30.1877 60.104 31.6237 61.77C33.0717 63.436 35.8817 64.468 39.1017 63.78C41.3637 63.3 44.2477 62.426 46.1657 59.698C48.0617 57.01 48.9158 53.146 49.0838 46.874C49.1238 46.53 49.1777 46.25 49.2277 45.978L49.6758 46.02H49.7298C52.1458 46.124 54.7717 45.78 56.9697 44.758C58.9057 43.862 60.3758 42.956 61.4478 41.342C61.7098 40.944 62.0098 40.456 62.0858 39.622C62.1678 38.8 61.6878 37.496 60.8958 36.894C59.3138 35.686 58.3137 36.144 57.2397 36.374C56.1897 36.604 55.1138 36.726 54.0418 36.758C57.1238 31.572 59.3318 26.052 60.5938 21.174C61.3438 18.288 61.7618 15.632 61.7918 13.31C61.8338 10.988 61.6378 8.936 60.2498 7.156C55.8958 1.604 49.7798 0.06 45.0518 0.01C44.9058 0.01 44.7618 0.01 44.6138 0.01L44.6118 0ZM44.4857 1.71C48.9557 1.668 54.6717 2.918 58.7757 8.166C59.7037 9.344 59.9757 11.062 59.9437 13.188C59.9117 15.314 59.5177 17.844 58.7977 20.626C57.4137 26.024 54.7758 32.292 51.0798 37.93C51.2058 38.024 51.3498 38.106 51.4958 38.16C52.2658 38.482 54.0257 38.752 57.5457 38.034C58.4317 37.844 59.0797 37.722 59.7557 38.232C60.0897 38.512 60.2658 38.93 60.2438 39.368C60.2038 39.69 60.0898 40.002 59.8898 40.264C59.2118 41.282 57.8717 42.254 56.1517 43.056C54.6317 43.762 52.4417 44.128 50.5177 44.15C49.5397 44.16 48.6437 44.086 47.8797 43.846L47.8397 43.838C47.5457 46.66 46.8718 52.244 46.4318 54.784C46.0798 56.834 45.4638 58.472 44.2878 59.69C43.1098 60.92 41.4537 61.648 39.2137 62.128C36.4437 62.722 34.4318 62.086 33.1318 60.992C31.8318 59.898 31.2358 58.44 30.8818 57.554C30.6338 56.94 30.5078 56.148 30.3838 55.084C30.2578 54.022 30.1757 52.73 30.1117 51.262C30.0297 49.022 29.9978 46.782 30.0298 44.532C28.8758 45.596 27.4377 46.292 25.8937 46.564C24.0517 46.876 22.4157 46.564 21.4377 46.324C20.9577 46.198 20.4878 46.022 20.0518 45.782C19.5938 45.542 19.1657 45.272 18.8757 44.728C18.7077 44.416 18.6577 44.054 18.7297 43.71C18.8117 43.356 19.0198 43.054 19.3038 42.824C19.8338 42.394 20.5337 42.158 21.5837 41.938C23.5017 41.54 24.1777 41.272 24.5837 40.946C24.9277 40.676 25.3258 40.114 26.0098 39.29C26.0098 39.26 26.0098 39.218 25.9998 39.186C24.7618 39.146 23.5518 38.824 22.4578 38.228C22.0638 38.644 20.0097 40.812 17.5217 43.812C16.4797 45.06 15.3237 45.78 14.0957 45.834C12.8777 45.884 11.7697 45.272 10.8337 44.364C8.95975 42.54 7.45775 39.404 6.15575 35.862C4.85375 32.32 3.80175 28.374 3.04175 25.02C2.29175 21.654 1.84375 18.946 1.77975 17.644C1.49975 12.092 2.80175 8.354 5.02975 5.988C7.25775 3.622 10.3117 2.738 13.2917 2.562C18.6357 2.26 23.7177 4.124 24.7397 4.52C26.7177 3.176 29.2697 2.344 32.4577 2.394C33.9697 2.416 35.4678 2.612 36.9378 2.978L36.9917 2.946C37.6377 2.728 38.2938 2.53 38.9598 2.386C40.7738 1.956 42.6258 1.738 44.4798 1.708L44.4857 1.71ZM44.8918 3.49H44.4977C42.9777 3.508 41.4437 3.688 39.9557 4.01C43.2777 5.48 45.7878 7.738 47.5578 10.01C48.7878 11.572 49.7977 13.29 50.5677 15.124C50.8717 15.834 51.0698 16.426 51.1738 16.884C51.2358 17.114 51.2678 17.31 51.2878 17.508C51.2878 17.612 51.2978 17.718 51.2458 17.894C51.2458 17.904 51.2357 17.926 51.2357 17.936C51.3217 20.27 50.7378 21.85 50.6618 24.08C50.6118 25.696 51.0278 27.592 51.1318 29.664C51.2258 31.61 50.9877 33.746 49.7257 35.85C49.8297 35.976 49.9238 36.1 50.0278 36.236C53.3718 30.964 55.7878 25.142 57.0698 20.172C57.7578 17.494 58.1197 15.068 58.1517 13.154C58.1837 11.236 57.8298 9.84 57.3698 9.258C53.7858 4.684 48.9438 3.516 44.8898 3.488L44.8918 3.49ZM32.1097 4.176C28.9657 4.186 26.7038 5.136 24.9878 6.562C23.2138 8.042 22.0277 10.052 21.2577 12.124C20.3297 14.572 20.0078 16.946 19.8818 18.562L19.9237 18.54C20.8737 18.01 22.1217 17.468 23.4657 17.166C24.7997 16.852 26.2478 16.758 27.5478 17.27C28.8618 17.768 29.9338 18.966 30.3298 20.768C32.2078 29.456 29.7478 32.686 28.8418 35.122C28.4978 36.008 28.1957 36.904 27.9557 37.82C28.0697 37.798 28.1857 37.766 28.2997 37.756C28.9457 37.706 29.4438 37.914 29.7378 38.038C30.6558 38.422 31.2797 39.214 31.6237 40.12C31.7057 40.36 31.7677 40.608 31.8097 40.88C31.8417 40.984 31.8638 41.098 31.8638 41.214C31.7598 44.536 31.7677 47.86 31.8937 51.182C31.9577 52.62 32.0517 53.88 32.1657 54.88C32.2797 55.87 32.4358 56.63 32.5418 56.89C32.8838 57.744 33.3838 58.858 34.2918 59.618C35.1878 60.38 36.4778 60.88 38.8438 60.38C40.8937 59.932 42.1557 59.326 42.9977 58.452C43.8437 57.566 44.3417 56.348 44.6637 54.484C45.1537 51.682 46.1218 43.556 46.2378 42.036C46.1878 40.878 46.3517 39.994 46.7277 39.316C47.1017 38.628 47.6858 38.202 48.1978 37.972C48.4458 37.858 48.6858 37.786 48.8838 37.722C48.6758 37.432 48.4578 37.14 48.2378 36.858C47.5098 35.972 46.9037 34.984 46.4557 33.932C46.2477 33.492 46.0177 33.054 45.7677 32.638C45.4157 32.004 44.9677 31.2 44.4977 30.294C43.5597 28.502 42.5398 26.316 42.0078 24.19C41.4778 22.064 41.4058 19.868 42.7598 18.326C43.9578 16.95 46.0717 16.38 49.2257 16.702C49.1317 16.42 49.0818 16.18 48.9238 15.816C48.2058 14.128 47.2678 12.544 46.1418 11.106C43.4638 7.68 39.1198 4.282 32.4238 4.168L32.1097 4.176ZM14.4038 4.312C14.0698 4.312 13.7258 4.322 13.3938 4.344C10.6958 4.502 8.15375 5.28 6.32975 7.208C4.50775 9.146 3.31175 12.302 3.56975 17.542C3.62375 18.542 4.04975 21.312 4.78775 24.614C5.52975 27.918 6.57975 31.804 7.84175 35.24C9.09975 38.666 10.6237 41.656 12.0817 43.072C12.8097 43.77 13.4437 44.062 14.0177 44.042C14.5917 44.01 15.2897 43.676 16.1437 42.656C17.6957 40.782 19.3018 38.968 20.9678 37.198C18.5698 35.104 17.3938 31.94 17.8638 28.792C18.1338 26.824 18.1758 24.978 18.1338 23.52C18.1038 22.104 18.0077 21.168 18.0077 20.574C18.0077 20.552 18.0077 20.542 18.0077 20.52V20.51L17.9977 20.492C17.9977 17.418 18.5418 14.378 19.5818 11.492C20.3318 9.5 21.4377 7.492 23.1017 5.854C21.4677 5.312 18.5598 4.502 15.4158 4.344C15.0818 4.322 14.7358 4.312 14.4038 4.312ZM47.4637 18.394C45.6537 18.426 44.6417 18.896 44.1017 19.498C43.3497 20.364 43.2777 21.884 43.7477 23.76C44.2137 25.634 45.1858 27.728 46.0918 29.47C46.5398 30.344 46.9778 31.126 47.3298 31.76C47.6958 32.406 47.9558 32.854 48.1118 33.25C48.2578 33.604 48.4258 33.916 48.5918 34.208C49.2898 32.728 49.4158 31.28 49.3418 29.76C49.2478 27.886 48.8118 25.968 48.8838 24.032C48.9578 21.76 49.4058 20.28 49.4378 18.53C48.7898 18.448 48.1238 18.394 47.4678 18.394H47.4637ZM25.5077 18.71C24.9557 18.71 24.4037 18.782 23.8617 18.908C22.7877 19.17 21.7578 19.564 20.7878 20.106C20.4658 20.282 20.1537 20.482 19.8617 20.712L19.7978 20.762C19.8198 21.16 19.8917 22.096 19.9237 23.492C19.9557 25.012 19.9238 26.948 19.6338 29.044C18.9878 33.606 22.2998 37.378 26.1858 37.388C26.4158 36.45 26.7877 35.5 27.1637 34.502C28.2457 31.584 30.3718 29.46 28.5798 21.148C28.2898 19.794 27.7058 19.242 26.9018 18.93C26.4538 18.772 25.9877 18.7 25.5077 18.712V18.71ZM46.6217 19.25H46.7578C46.9238 19.26 47.0917 19.272 47.2357 19.312C47.3717 19.344 47.4977 19.386 47.6017 19.458C47.7057 19.52 47.7778 19.624 47.7998 19.748V19.77C47.7998 19.896 47.7677 20.02 47.7057 20.136C47.6237 20.28 47.5297 20.416 47.4157 20.53C47.1437 20.832 46.7778 21.032 46.3838 21.092C45.9978 21.146 45.6137 21.042 45.2897 20.822C45.1637 20.726 45.0398 20.622 44.9458 20.508C44.8518 20.414 44.7998 20.29 44.7778 20.164C44.7698 20.042 44.7998 19.916 44.8818 19.822C44.9778 19.726 45.0818 19.644 45.1958 19.582C45.4538 19.436 45.7978 19.332 46.1958 19.278C46.3398 19.26 46.4857 19.248 46.6217 19.238V19.25ZM25.7658 19.698C25.9018 19.698 26.0597 19.708 26.2057 19.728C26.6217 19.792 26.9758 19.896 27.2558 20.062C27.3918 20.126 27.5178 20.23 27.6098 20.344C27.7138 20.47 27.7638 20.624 27.7558 20.792C27.7238 20.946 27.6597 21.094 27.5557 21.208C27.4417 21.344 27.3178 21.458 27.1718 21.552C26.8278 21.802 26.4018 21.906 25.9738 21.854C25.5438 21.782 25.1498 21.574 24.8598 21.252C24.7338 21.116 24.6297 20.97 24.5457 20.814C24.4517 20.668 24.4117 20.502 24.4317 20.334C24.4737 20.054 24.7138 19.896 24.9438 19.814C25.2058 19.728 25.4858 19.7 25.7658 19.71V19.698ZM49.9238 39.28H49.9137C49.5297 39.426 49.2077 39.48 48.9357 39.606C48.6557 39.71 48.4338 39.918 48.3018 40.176C48.1238 40.48 47.9898 41.022 48.0298 41.946C48.1438 42.032 48.2797 42.092 48.4277 42.136C48.8757 42.272 49.6458 42.366 50.4998 42.354C52.1978 42.332 54.2918 41.938 55.4058 41.416C56.3118 41 57.1657 40.438 57.9157 39.782C54.1977 40.542 52.1057 40.344 50.8117 39.814C50.4997 39.678 50.1958 39.5 49.9238 39.28ZM28.5077 39.53H28.4538C28.3098 39.54 28.1098 39.594 27.7038 40.032C26.7758 41.072 26.4538 41.728 25.6938 42.334C24.9238 42.948 23.9338 43.272 21.9438 43.678C21.3198 43.804 20.9538 43.948 20.7138 44.062C20.7858 44.126 20.7857 44.148 20.8997 44.198C21.1937 44.366 21.5658 44.502 21.8698 44.584C22.7238 44.792 24.1177 45.042 25.5877 44.792C27.0457 44.542 28.5658 43.842 29.8698 42.022C30.0998 41.71 30.1177 41.24 29.9317 40.74C29.7457 40.252 29.3378 39.814 29.0578 39.7C28.8798 39.614 28.6918 39.564 28.5058 39.532L28.5077 39.53Z" fill="black"/>
</svg>
