<svg width="32" height="32" viewBox="0 0 32 32" fill="none" xmlns="http://www.w3.org/2000/svg">
<rect width="32" height="32" fill="black"/>
<path d="M9.51705 25V7.54545H16.4034C17.7216 7.54545 18.8466 7.78125 19.7784 8.25284C20.7159 8.71875 21.429 9.38068 21.9176 10.2386C22.4119 11.0909 22.6591 12.0937 22.6591 13.2472C22.6591 14.4062 22.4091 15.4034 21.9091 16.2386C21.4091 17.0682 20.6847 17.7045 19.7358 18.1477C18.7926 18.5909 17.6506 18.8125 16.3097 18.8125H11.6989V15.8466H15.7131C16.4176 15.8466 17.0028 15.75 17.4688 15.5568C17.9347 15.3636 18.2813 15.0739 18.5085 14.6875C18.7415 14.3011 18.858 13.821 18.858 13.2472C18.858 12.6676 18.7415 12.179 18.5085 11.7812C18.2813 11.3835 17.9318 11.0824 17.4602 10.8778C16.9943 10.6676 16.4063 10.5625 15.696 10.5625H13.2074V25H9.51705ZM18.9432 17.0568L23.2812 25H19.2074L14.9631 17.0568H18.9432Z" fill="white"/>
</svg>
